<?xml version="1.0" encoding="UTF-8"?>
<svg width="16px" height="16px" viewBox="0 0 16 16" version="1.1" xmlns="http://www.w3.org/2000/svg" xmlns:xlink="http://www.w3.org/1999/xlink">
    <!-- Generator: Sketch 49 (51002) - http://www.bohemiancoding.com/sketch -->
    <title>icon/search/16</title>
    <desc>Created with Sketch.</desc>
    <defs></defs>
    <g id="Page-1-Copy" stroke="none" stroke-width="1" fill="none" fill-rule="evenodd">
        <g id="searchResult_1" transform="translate(-42.000000, -96.000000)" fill="#C3D1DE" fill-rule="nonzero">
            <g id="Group-16" transform="translate(32.000000, 89.000000)">
                <path d="M21.3333333,17.4 L26,22.0666667 L25.0666667,23 L20.4,18.3333333 C19.3333333,19.2666667 18,19.8 16.4,19.8 C12.8,19.8 10,16.8666667 10,13.4 C10,9.93333333 12.8,7 16.4,7 C20,7 22.8,9.8 22.8,13.4 C22.8,15 22.2666667,16.3333333 21.3333333,17.4 Z M16.4,18.4666667 C19.2,18.4666667 21.4666667,16.2 21.4666667,13.4 C21.4666667,10.6 19.2,8.33333333 16.4,8.33333333 C13.6,8.33333333 11.3333333,10.6 11.3333333,13.4 C11.3333333,16.2 13.6,18.4666667 16.4,18.4666667 Z" id="icon/search/16"></path>
            </g>
        </g>
    </g>
</svg>